<?xml version="1.0" encoding="UTF-8"?>
<svg width="25px" height="32px" viewBox="0 0 25 32" version="1.1" xmlns="http://www.w3.org/2000/svg" xmlns:xlink="http://www.w3.org/1999/xlink">
    <title>Name=Location</title>
    <g id="Page-1" stroke="none" stroke-width="1" fill="none" fill-rule="evenodd">
        <g id="Detailpage-+-map-(adres)" transform="translate(-1126.000000, -246.000000)">
            <g id="Name=Location" transform="translate(1126.000000, 246.000000)">
                <path d="M12.10759,32 L10.87839,30.9142 C10.42769,30.5455 0,21.2343 0,12.1076 C0,5.42074 5.42074,0 12.10759,0 C18.79439,0 24.21509,5.42074 24.21509,12.1076 C24.21509,21.2343 13.78749,30.5455 13.33679,30.9142 L12.10759,32 Z M12.10759,3.72855 C7.48229,3.7342 3.7342,7.4823 3.72855,12.1076 C3.72855,17.4955 8.97309,23.8361 12.09729,26.9501 C14.68889,24.3995 20.48659,17.9155 20.48659,12.1076 C20.48089,7.4823 16.73279,3.7342 12.10759,3.72855 Z" id="Location" fill="#004699"></path>
                <path d="M12.10759,3.72855 C7.48229,3.7342 3.7342,7.4823 3.72855,12.1076 C3.72855,17.4955 8.97309,23.8361 12.09729,26.9501 C14.68889,24.3995 20.48659,17.9155 20.48659,12.1076 C20.48089,7.4823 16.73279,3.7342 12.10759,3.72855 Z" id="Location-path" fill="#FFFFFF"></path>
                <path d="M12.10759,16.2049 C14.37039,16.2049 16.20489,14.3704 16.20489,12.1076 C16.20489,9.84467 14.37039,8.01024 12.10759,8.01024 C9.84469,8.01024 8.01029,9.84467 8.01029,12.1076 C8.01029,14.3704 9.84469,16.2049 12.10759,16.2049 Z" id="Location-path" fill="#004699"></path>
            </g>
        </g>
    </g>
</svg>